<svg baseProfile="tiny" version="1.2" viewBox="0 0 24 24" xml:space="preserve" xmlns="http://www.w3.org/2000/svg"><path d="m21.171 15.398-5.912-9.854C14.483 4.251 13.296 3.511 12 3.511s-2.483.74-3.259 2.031l-5.912 9.856c-.786 1.309-.872 2.705-.235 3.83C3.23 20.354 4.472 21 6 21h12c1.528 0 2.77-.646 3.406-1.771.637-1.125.551-2.521-.235-3.831zM12 8.449a1.557 1.557 0 0 1 1.551 1.55c0 .853-.695 1.549-1.55 1.551A1.558 1.558 0 0 1 10.449 10c0-.855.696-1.551 1.551-1.551zm1.69 8.461c-.032.037-.795.918-2.068.918-.051 0-.103-.001-.154-.004-.508-.03-.928-.255-1.185-.634-.315-.465-.358-1.113-.121-1.825l.406-1.221c.225-.683.01-.792-.106-.85a.321.321 0 0 0-.14-.025c-.251 0-.597.148-.708.206a.254.254 0 0 1-.311-.067.252.252 0 0 1 .007-.318c.033-.039.867-.995 2.223-.914.505.029.925.253 1.182.631.316.465.36 1.114.124 1.828l-.406 1.221c-.227.682-.01.792.106.85.02.01.062.023.137.023.254 0 .6-.148.712-.205a.248.248 0 0 1 .31.068.253.253 0 0 1-.008.318z" fill="#e6e6e6" class="fill-000000"></path></svg>