<svg xmlns="http://www.w3.org/2000/svg" width="109" height="109" viewBox="0 0 109 109" fill="none">
    <path d="M57.6548 28.3931C60.9739 28.0846 63.2223 31.1014 65.959 32.0404C68.7962 33.0137 72.9937 32.2585 74.9672 34.3232C76.9407 36.3876 76.0563 40.6091 76.9231 43.5112C77.7596 46.3107 80.6644 48.6848 80.2502 52.0323C79.836 55.3798 76.2688 58.355 74.7119 61.3771C73.0978 64.5101 72.9453 68.6632 70.4091 71.1469C67.8729 73.6303 63.7666 73.6471 60.6197 75.1764C57.584 76.6516 54.5279 80.1616 51.2088 80.4697C47.8898 80.7783 45.6413 77.7614 42.9046 76.8225C40.0674 75.8492 35.8699 76.6044 33.8964 74.5396C31.9229 72.4753 32.8074 68.2537 31.9405 65.3517C31.104 62.5522 28.1992 60.178 28.6134 56.8306C29.0277 53.4831 32.5949 50.5079 34.1517 47.4858C35.7658 44.3528 35.9183 40.1997 38.4545 37.7159C40.9907 35.2326 45.097 35.2157 48.244 33.6865C51.2797 32.2113 54.3358 28.7013 57.6548 28.3931Z" stroke="white" stroke-width="0.1639" stroke-miterlimit="10"/>
    <path d="M58.7301 27.9519C62.1055 27.7694 64.2639 30.9424 67.0003 32.0114C69.8367 33.1196 74.1202 32.5156 76.0377 34.7045C77.9556 36.8933 76.8918 41.1717 77.6554 44.1721C78.3922 47.0665 81.2414 49.6088 80.6887 53.0131C80.136 56.4174 76.4039 59.3154 74.7062 62.3415C72.9464 65.4784 72.6274 69.7168 69.9587 72.1533C67.29 74.5899 63.1285 74.4426 59.8791 75.8798C56.7446 77.2662 53.5088 80.7305 50.1333 80.913C46.7578 81.0955 44.5994 77.9225 41.8631 76.8535C39.0267 75.7453 34.7431 76.3493 32.8256 74.1604C30.9078 71.9716 31.9716 67.6932 31.2079 64.6928C30.4711 61.7983 27.6219 59.2561 28.1746 55.8518C28.7274 52.4475 32.4594 49.5495 34.1572 46.5234C35.917 43.3865 36.2359 39.1481 38.9046 36.7116C41.5733 34.275 45.7348 34.4223 48.9842 32.9851C52.1188 31.5987 55.3546 28.1344 58.7301 27.9519Z" stroke="white" stroke-width="0.1669" stroke-miterlimit="10"/>
    <path d="M59.837 27.5426C63.2645 27.491 65.326 30.82 68.0564 32.0215C70.8863 33.2674 75.2508 32.8215 77.1074 35.1348C78.964 37.4481 77.7165 41.7781 78.3713 44.875C79.0029 47.8627 81.7892 50.5746 81.0944 54.0313C80.3996 57.4881 76.5027 60.3008 74.6624 63.3253C72.7546 66.4607 72.2635 70.7795 69.4631 73.1628C66.6624 75.5461 62.4516 75.2291 59.1018 76.5679C55.8704 77.8594 52.4545 81.2705 49.0266 81.3221C45.599 81.3738 43.5375 78.0447 40.8072 76.8432C37.9772 75.5973 33.6128 76.0432 31.7561 73.7299C29.8995 71.4166 31.147 67.0866 30.4922 63.9897C29.8607 61.002 27.0743 58.2901 27.7691 54.8334C28.4639 51.3767 32.3609 48.5639 34.2011 45.5394C36.109 42.4041 36.6 38.0853 39.4004 35.7019C42.2011 33.3186 46.4119 33.6356 49.7618 32.2968C52.9932 31.0053 56.4095 27.5938 59.837 27.5426Z" stroke="white" stroke-width="0.17" stroke-miterlimit="10"/>
    <path d="M60.975 27.1686C64.4505 27.253 66.4072 30.7373 69.1259 32.0745C71.9443 33.4609 76.3844 33.1795 78.1738 35.6181C79.9632 38.0562 78.5276 42.4315 79.0687 45.6224C79.5906 48.7006 82.3065 51.5834 81.4652 55.0885C80.6239 58.5937 76.5641 61.312 74.5794 64.3293C72.5218 67.4574 71.8531 71.851 68.9206 74.1747C65.9882 76.4984 61.7338 76.0062 58.2867 77.2404C54.9613 78.4311 51.3645 81.7806 47.8889 81.6961C44.4134 81.6117 42.4567 78.1273 39.738 76.7902C36.9196 75.4038 32.4795 75.6852 30.6901 73.2466C28.9007 70.8085 30.3363 66.4332 29.7952 63.2422C29.2734 60.1641 26.5574 57.2813 27.3987 53.7762C28.24 50.2714 32.2998 47.5527 34.2845 44.5354C36.3421 41.4073 37.0109 37.0136 39.9433 34.6899C42.8757 32.3663 47.1301 32.8585 50.5772 31.6242C53.9027 30.4336 57.4999 27.0841 60.975 27.1686Z" stroke="white" stroke-width="0.1731" stroke-miterlimit="10"/>
    <path d="M62.143 26.8323C65.6614 27.0576 67.506 30.6965 70.2079 32.1717C73.0087 33.7009 77.5192 33.5913 79.2357 36.1547C80.9523 38.7181 79.3242 43.1318 79.7456 46.4144C80.1522 49.581 82.7901 52.6355 81.7988 56.1839C80.8074 59.7322 76.5855 62.3477 74.4551 65.3522C72.2462 68.4667 71.3946 72.93 68.3309 75.1872C65.2676 77.4445 60.976 76.7717 57.434 77.8952C54.0173 78.979 50.2396 82.258 46.7212 82.0327C43.2029 81.8073 41.3582 78.1685 38.6563 76.6933C35.8556 75.164 31.3451 75.2737 29.6285 72.7103C27.9119 70.1468 29.5401 65.7332 29.1186 62.4506C28.712 59.284 26.0741 56.2295 27.0655 52.6811C28.0568 49.1327 32.2788 46.5173 34.4092 43.5128C36.618 40.3983 37.4697 35.935 40.5334 33.6777C43.5967 31.4205 47.8883 32.0932 51.4303 30.9698C54.8474 29.8864 58.6247 26.6074 62.143 26.8323Z" stroke="white" stroke-width="0.1763" stroke-miterlimit="10"/>
    <path d="M63.3395 26.5347C66.8955 26.9053 68.6208 30.6978 71.3003 32.3135C74.0779 33.9884 78.6524 34.0564 80.2905 36.7447C81.9283 39.433 80.1036 43.8783 80.4006 47.2498C80.6872 50.502 83.239 53.7294 82.094 57.3158C80.9489 60.9022 76.5673 63.4064 74.2888 66.3913C71.9271 69.4858 70.8869 74.0127 67.6931 76.1971C64.4994 78.3815 60.1773 77.5223 56.5437 78.5284C53.0386 79.4994 49.0808 82.6991 45.5244 82.3285C41.9684 81.9579 40.243 78.1654 37.5639 76.5497C34.7864 74.8748 30.2119 74.8067 28.5737 72.1184C26.936 69.4301 28.7606 64.9849 28.4637 61.6134C28.1771 58.3612 25.6253 55.1338 26.7703 51.5474C27.9154 47.961 32.2974 45.4568 34.5755 42.4719C36.9372 39.3774 37.9774 34.8505 41.1712 32.6661C44.3649 30.4817 48.6869 31.3409 52.3206 30.3348C55.8257 29.3638 59.7835 26.1637 63.3395 26.5347Z" stroke="white" stroke-width="0.1795" stroke-miterlimit="10"/>
    <path d="M64.5636 26.2791C68.1524 26.8002 69.7501 30.7448 72.4012 32.5029C75.1495 34.3255 79.7821 34.5781 81.3353 37.3909C82.8886 40.2036 80.8631 44.6733 81.0304 48.1308C81.1917 51.4659 83.6494 54.8658 82.3471 58.485C81.0444 62.1042 76.5055 64.4883 74.0785 67.4476C71.5627 70.5153 70.3292 75.1003 67.0066 77.205C63.6839 79.3098 59.3383 78.2588 55.6166 79.1417C52.0262 79.9938 47.8891 83.1055 44.3003 82.5848C40.7115 82.0637 39.1138 78.1191 36.4628 76.3609C33.7144 74.5383 29.0818 74.2858 27.5286 71.473C25.9757 68.6603 28.0008 64.1906 27.8336 60.7331C27.6723 57.398 25.2145 53.9981 26.5168 50.3789C27.8195 46.7597 32.3585 44.3755 34.7854 41.4163C37.3012 38.3486 38.5347 33.7636 41.8574 31.6589C45.18 29.5541 49.5256 30.6051 53.2473 29.7218C56.8377 28.8701 60.9748 25.7584 64.5636 26.2791Z" stroke="white" stroke-width="0.1828" stroke-miterlimit="10"/>
    <path d="M65.815 26.0668C69.4311 26.7428 70.8935 30.8379 73.5101 32.7405C76.2224 34.7128 80.907 35.1563 82.3695 38.0927C83.8319 41.0291 81.6022 45.516 81.6347 49.056C81.6659 52.4707 84.0216 56.0435 82.5584 59.6899C81.0952 63.3364 76.4009 65.5912 73.8243 68.5184C71.1536 71.5529 69.722 76.1891 66.2713 78.207C62.821 80.225 58.4594 78.9775 54.6528 79.7311C50.9808 80.4583 46.6652 83.4732 43.0496 82.7972C39.434 82.1212 37.9711 78.0261 35.3545 76.1235C32.6422 74.1512 27.9576 73.7077 26.4952 70.7713C25.0327 67.8349 27.2624 63.348 27.23 59.808C27.1987 56.3933 24.843 52.8205 26.3062 49.1741C27.7695 45.5276 32.4637 43.2728 35.0403 40.3455C37.711 37.3111 39.1426 32.6749 42.5933 30.657C46.0436 28.639 50.4053 29.8865 54.2118 29.1329C57.8834 28.4057 62.199 25.3908 65.815 26.0668Z" stroke="white" stroke-width="0.1862" stroke-miterlimit="10"/>
    <path d="M67.0906 25.8996C70.7278 26.7348 72.0474 30.9784 74.6236 33.0275C77.2939 35.1515 82.0233 35.7919 83.3885 38.8516C84.7537 41.9109 82.3171 46.4074 82.2094 50.0258C82.1058 53.5166 84.3514 57.2618 82.7237 60.9303C81.0964 64.5983 76.2505 66.7151 73.5238 69.6035C70.6974 72.598 69.0629 77.2786 65.4865 79.2029C61.9101 81.1271 57.5401 79.6775 53.6531 80.2959C49.9034 80.8922 45.4109 83.8006 41.7737 82.9654C38.1365 82.1301 36.8169 77.8865 34.2407 75.8374C31.5704 73.7134 26.841 73.073 25.4758 70.0133C24.1107 66.954 26.5472 62.4579 26.6549 58.8391C26.7586 55.3484 24.5129 51.6031 26.1406 47.9346C27.7679 44.2666 32.6138 42.1498 35.3405 39.2614C38.1669 36.2669 39.8014 31.5863 43.3778 29.6621C46.9542 27.7378 51.3242 29.1874 55.2112 28.5691C58.9609 27.9727 63.4538 25.0643 67.0906 25.8996Z" stroke="white" stroke-width="0.1896" stroke-miterlimit="10"/>
    <path d="M68.3899 25.7798C72.0423 26.7788 73.2114 31.168 75.7404 33.3653C78.3619 35.6429 83.1289 36.4862 84.3908 39.6672C85.6531 42.8482 83.0056 47.3459 82.7531 51.0395C82.5098 54.6027 84.6365 58.5201 82.8419 62.2037C81.0473 65.8874 76.053 67.8565 73.1758 70.6993C70.1929 73.6461 68.3511 78.3643 64.651 80.1878C60.951 82.0112 56.5801 80.3554 52.6167 80.8317C48.7938 81.2912 44.126 84.0839 40.4735 83.0846C36.8211 82.0856 35.6521 77.6964 33.1231 75.4991C30.5016 73.2215 25.7345 72.3782 24.4726 69.1972C23.2103 66.0163 25.8578 61.5186 26.1103 57.8249C26.3537 54.2617 24.2269 50.3443 26.0215 46.6607C27.8161 42.977 32.8105 41.0079 35.6877 38.1651C38.6705 35.2183 40.5124 30.5001 44.2124 28.6767C47.9125 26.8532 52.2833 28.509 56.2467 28.0327C60.0701 27.5732 64.7375 24.7805 68.3899 25.7798Z" stroke="white" stroke-width="0.1931" stroke-miterlimit="10"/>
    <path d="M69.7114 25.7085C73.3726 26.8756 74.3832 31.4077 76.859 33.7542C79.4252 36.1863 84.2219 37.2389 85.3749 40.5404C86.528 43.8418 83.6668 48.3319 83.2646 52.0968C82.8767 55.7284 84.8767 59.8167 82.9124 63.5092C80.9481 67.2016 75.8092 69.0146 72.7807 71.8046C69.6414 74.697 67.5882 79.4448 63.7665 81.1606C59.9448 82.8763 55.5815 81.0093 51.5469 81.3375C47.6547 81.6541 42.8144 84.3215 39.1528 83.1545C35.4915 81.9874 34.481 77.4553 32.0052 75.1088C29.439 72.6767 24.6423 71.6241 23.4893 68.3226C22.3362 65.0212 25.1974 60.5311 25.5996 56.7662C25.9875 53.1346 23.9875 49.0463 25.9518 45.3538C27.9161 41.6614 33.055 39.8484 36.0835 37.0584C39.2228 34.166 41.276 29.4182 45.0977 27.7024C48.9194 25.9867 53.2827 27.8537 57.3173 27.5255C61.2095 27.2089 66.0502 24.5419 69.7114 25.7085Z" stroke="white" stroke-width="0.1966" stroke-miterlimit="10"/>
    <path d="M71.0532 25.69C74.7168 27.0292 75.5613 31.701 77.977 34.198C80.4808 36.7862 85.2999 38.0537 86.3373 41.4732C87.3747 44.8931 84.2974 49.3672 83.7411 53.1986C83.204 56.8946 85.0686 61.1522 82.9318 64.8475C80.795 68.5423 75.5157 70.1896 72.3367 72.92C69.0409 75.7503 66.772 80.5202 62.8314 82.1207C58.8908 83.7212 54.5436 81.6388 50.4421 81.8129C46.4855 81.981 41.4751 84.5132 37.8111 83.1745C34.1474 81.8353 33.303 77.1635 30.8872 74.6665C28.3834 72.0783 23.5643 70.8108 22.527 67.3913C21.4896 63.9714 24.5669 59.4973 25.1232 55.6659C25.6603 51.9699 23.7957 47.7123 25.9325 44.0171C28.0692 40.3222 33.3486 38.6749 36.5276 35.9446C39.8234 33.1142 42.0923 28.3443 46.0329 26.7438C49.9734 25.1433 54.3207 27.2257 58.4222 27.0516C62.3788 26.8831 67.3895 24.3509 71.0532 25.69Z" stroke="white" stroke-width="0.2002" stroke-miterlimit="10"/>
    <path d="M72.4139 25.7239C76.0735 27.2387 76.7439 32.047 79.0924 34.6953C81.5269 37.4404 86.3596 38.9284 87.2753 42.4644C88.1911 46.0008 84.8956 50.45 84.1796 54.3434C83.4888 58.0991 85.2094 62.5248 82.8977 66.2152C80.586 69.9061 75.1714 71.3781 71.8415 74.0412C68.3896 76.8019 65.9014 81.5858 61.8452 83.0638C57.7889 84.5418 53.4661 82.2397 49.3034 82.2538C45.2876 82.2674 40.1099 84.6547 36.4506 83.1399C32.791 81.625 32.1206 76.8167 29.7721 74.1684C27.3376 71.4233 22.5049 69.9353 21.5892 66.3993C20.6734 62.8629 23.9689 58.4137 24.6849 54.5203C25.3757 50.7646 23.6551 46.3389 25.9668 42.6485C28.2785 38.9576 33.6931 37.4856 37.023 34.8225C40.4749 32.0618 42.9631 27.2779 47.0193 25.7999C51.0756 24.3219 55.3984 26.624 59.5611 26.61C63.5769 26.5963 68.7546 24.209 72.4139 25.7239Z" stroke="white" stroke-width="0.2039" stroke-miterlimit="10"/>
    <path d="M73.7911 25.8126C77.4391 27.5072 77.9278 32.4475 80.2027 35.2475C82.5608 38.1503 87.3991 39.8636 88.1863 43.5145C88.974 47.1649 85.4584 51.5802 84.5783 55.53C83.7294 59.3405 85.2975 63.9318 82.8085 67.6111C80.3199 71.2903 74.7749 72.5783 71.2949 75.1665C67.6877 77.8496 64.977 82.6391 60.8079 83.9874C56.6388 85.3358 52.35 82.8104 48.1312 82.6583C44.0614 82.5114 38.7204 84.7446 35.0723 83.0501C31.4243 81.3556 30.9356 76.4152 28.6608 73.6152C26.3027 70.7124 21.4644 68.9991 20.6771 65.3482C19.8895 61.6978 23.405 57.2825 24.2851 53.3327C25.134 49.5222 23.5659 44.9309 26.0549 41.2516C28.5435 37.5724 34.0886 36.2844 37.5685 33.6962C41.1757 31.0131 43.8865 26.2236 48.0556 24.8753C52.2247 23.5269 56.5135 26.0523 60.7322 26.2044C64.8017 26.3513 70.1427 24.1185 73.7911 25.8126Z" stroke="white" stroke-width="0.2077" stroke-miterlimit="10"/>
    <path d="M75.1835 25.9598C78.8131 27.8372 79.1124 32.9056 81.3065 35.8581C83.5809 38.9186 88.4152 40.8633 89.0688 44.6254C89.7219 48.3875 85.9847 52.7591 84.9365 56.7605C83.9255 60.6207 85.3323 65.3753 82.6644 69.0357C79.9965 72.6962 74.327 73.7908 70.6982 76.2966C66.9365 78.8944 64 83.6803 59.722 84.8918C55.4441 86.1028 51.1985 83.3509 46.9293 83.0267C42.8114 82.7142 37.3104 84.7825 33.6811 82.9051C30.0515 81.0276 29.7522 75.9592 27.5581 73.0068C25.2837 69.9463 20.449 68.0016 19.7958 64.2395C19.1427 60.4774 22.8799 56.1058 23.9281 52.1043C24.9391 48.2442 23.5323 43.4895 26.2002 39.8291C28.8681 36.1687 34.5376 35.074 38.1664 32.5682C41.9281 29.9704 44.8646 25.1845 49.1426 23.9731C53.4205 22.762 57.6661 25.5139 61.9353 25.8381C66.0532 26.1507 71.5538 24.0823 75.1835 25.9598Z" stroke="white" stroke-width="0.2115" stroke-miterlimit="10"/>
    <path d="M76.5882 26.1643C80.1914 28.2278 80.2939 33.4195 82.4002 36.5245C84.5838 39.7431 89.4053 41.9239 89.9184 45.7944C90.4315 49.665 86.4709 53.9834 85.2502 58.0304C84.0728 61.9346 85.3094 66.8502 82.4615 70.4842C79.6131 74.1182 73.8242 75.0103 70.0481 77.426C66.1336 79.9306 62.9682 84.7041 58.5854 85.7707C54.2025 86.8373 50.0094 83.8552 45.6966 83.3533C41.5363 82.8691 35.8803 84.7629 32.2767 82.6994C28.6735 80.6358 28.571 75.4441 26.4647 72.3392C24.281 69.1206 19.4596 66.9398 18.9465 63.0692C18.4334 59.1987 22.394 54.8803 23.6147 50.8332C24.7921 46.9291 23.5554 42.0135 26.4034 38.3795C29.2518 34.7455 35.0406 33.8534 38.8167 31.4376C42.7313 28.933 45.8967 24.1596 50.2795 23.093C54.6624 22.0264 58.8555 25.0084 63.1683 25.5103C67.3286 25.9946 72.9846 24.1007 76.5882 26.1643Z" stroke="white" stroke-width="0.2154" stroke-miterlimit="10"/>
    <path d="M78.0032 26.43C81.5728 28.6829 81.4708 33.9926 83.4819 37.25C85.5667 40.6267 90.3661 43.0477 90.7323 47.0239C91.0985 51.0001 86.9142 55.2545 85.517 59.3415C84.1691 63.2841 85.2277 68.357 82.1972 71.957C79.1671 75.557 73.2658 76.237 69.3436 78.555C65.2778 80.958 61.8807 85.7094 57.3974 86.6247C52.9141 87.5397 48.7834 84.3243 44.4329 83.6391C40.2362 82.9779 34.4302 84.6873 30.8606 82.4344C27.291 80.1816 27.3931 74.8718 25.3819 71.6144C23.2972 68.2377 18.4977 65.8168 18.1315 61.8405C17.7653 57.8643 21.9496 53.61 23.3468 49.5229C24.6947 45.5803 23.6362 40.5075 26.6666 36.9075C29.6967 33.3074 35.598 32.6275 39.5202 30.3094C43.5861 27.9064 46.9832 23.155 51.4665 22.2397C55.9498 21.3248 60.0805 24.5402 64.4309 25.2253C68.6276 25.8861 74.4337 24.1772 78.0032 26.43Z" stroke="white" stroke-width="0.2193" stroke-miterlimit="10"/>
    <path d="M79.4268 26.7587C82.9544 29.2037 82.6406 34.6259 84.5497 38.035C86.5284 41.569 91.2958 44.2353 91.5092 48.3132C91.7229 52.391 87.314 56.5718 85.7359 60.6925C84.2139 64.6679 85.0852 69.8944 81.8718 73.452C78.6584 77.0095 72.6519 77.4686 68.5856 79.6806C64.3704 81.9735 60.74 86.6937 56.1607 87.4494C51.5813 88.205 47.5231 84.7543 43.1422 83.8798C38.9159 83.0365 32.9646 84.5509 29.437 82.106C25.9094 79.661 26.2232 74.2388 24.3141 70.8297C22.3354 67.2957 17.568 64.6294 17.3547 60.5516C17.141 56.4737 21.5498 52.293 23.1279 48.1723C24.6499 44.1969 23.7786 38.9703 26.992 35.4128C30.205 31.8552 36.2116 31.3961 40.2778 29.1841C44.493 26.8912 48.1234 22.171 52.7028 21.415C57.2821 20.6593 61.3404 24.1101 65.7212 24.9846C69.948 25.8282 75.8993 24.3134 79.4268 26.7587Z" stroke="white" stroke-width="0.2234" stroke-miterlimit="10"/>
    <path d="M80.8564 27.1507C84.334 29.7906 83.8013 35.3189 85.6003 38.8793C87.4653 42.5697 92.1903 45.4854 92.2452 49.6613C92.3 53.8372 87.667 57.9331 85.9044 62.0814C84.2043 66.0832 84.8803 71.459 81.4832 74.9662C78.0861 78.4733 71.9815 78.7023 67.7735 80.8002C63.4115 82.975 59.5454 87.6536 54.8752 88.2428C50.205 88.8319 46.2295 85.143 41.8247 84.0744C37.5755 83.0435 31.4853 84.3534 28.0074 81.7139C24.5299 79.0741 25.0625 73.5458 23.2635 69.9854C21.3985 66.2949 16.6735 63.3793 16.6186 59.2034C16.5638 55.0275 21.1968 50.9316 22.9594 46.7833C24.6595 42.7814 23.9835 37.4057 27.3806 33.8985C30.7777 30.3913 36.8823 30.1624 41.0903 28.0645C45.4523 25.8896 49.3185 21.211 53.9887 20.6219C58.6589 20.0328 62.6343 23.7216 67.0391 24.7902C71.2883 25.8208 77.3789 24.5109 80.8564 27.1507Z" stroke="white" stroke-width="0.2275" stroke-miterlimit="10"/>
    <path d="M82.2892 27.608C85.7083 30.4448 84.9491 36.0731 86.6312 39.7832C88.375 43.6293 93.0472 46.7975 92.9367 51.067C92.8267 55.3366 87.9696 59.3372 86.0193 63.5064C84.1378 67.5278 84.6097 73.0489 81.0285 76.4972C77.4473 79.9455 71.2523 79.9355 66.905 81.9114C62.3985 83.9598 58.2958 88.5859 53.54 89.0018C48.7841 89.4172 44.9024 85.4886 40.4811 84.2203C36.2163 82.9968 29.9929 84.0922 26.5738 81.2555C23.1547 78.4187 23.9139 72.7903 22.2318 69.0803C20.488 65.2341 15.8158 62.066 15.9262 57.7964C16.0363 53.5268 20.8934 49.5262 22.8437 45.3571C24.7251 41.3356 24.2533 35.8145 27.8345 32.3662C31.4157 28.9179 37.6107 28.9279 41.9579 26.952C46.4645 24.9037 50.5671 20.2775 55.323 19.8617C60.0788 19.4462 63.9606 23.3748 68.3819 24.6431C72.6466 25.8666 78.8701 24.7712 82.2892 27.608Z" stroke="white" stroke-width="0.2317" stroke-miterlimit="10"/>
    <path d="M83.7234 28.1336C87.0757 31.1693 86.0831 36.8909 87.6404 40.7494C89.2549 44.7497 93.8634 48.174 93.5825 52.5332C93.3015 56.892 88.2215 60.7862 86.0799 64.9685C84.0143 69.0032 84.2733 74.6639 80.5076 78.0446C76.7419 81.4253 70.4652 81.1675 65.9815 83.013C61.3337 84.926 56.9933 89.4898 52.1578 89.7243C47.3223 89.9588 43.5442 85.7885 39.1149 84.3161C34.8422 82.8953 28.4922 83.7658 25.1399 80.7301C21.7877 77.6944 22.7802 71.9728 21.223 68.1143C19.6085 64.114 14.9999 60.6897 15.2809 56.3305C15.5618 51.9717 20.6418 48.0775 22.7834 43.8952C24.849 39.8605 24.59 34.1998 28.3557 30.8191C32.1214 27.4384 38.3981 27.6962 42.8818 25.8507C47.5296 23.9377 51.87 19.3739 56.7055 19.1394C61.541 18.9049 65.3191 23.0752 69.7484 24.5476C74.0216 25.968 80.3711 25.0979 83.7234 28.1336Z" stroke="white" stroke-width="0.2359" stroke-miterlimit="10"/>
    <path d="M85.1555 28.7281C88.4321 31.9643 87.1998 37.7716 88.6246 41.7774C90.1019 45.9297 94.636 49.6138 94.1789 54.057C93.7215 58.5003 88.4193 62.2768 86.0836 66.4656C83.8304 70.5062 83.8688 76.3014 79.919 79.6057C75.9692 82.9103 69.6188 82.3956 65.0031 84.1022C60.218 85.8712 55.6383 90.3617 50.7291 90.4081C45.82 90.4545 42.1571 86.0416 37.7271 84.3595C33.4535 82.737 26.9851 83.3726 23.7085 80.1364C20.4318 76.9002 21.6641 71.0929 20.2393 67.0871C18.7621 62.9348 14.228 59.2507 14.685 54.8075C15.1425 50.3642 20.4446 46.5877 22.7804 42.3989C25.0336 38.3583 24.9952 32.5631 28.945 29.2588C32.8948 25.9542 39.2451 26.4689 43.8609 24.7623C48.646 22.9933 53.2257 18.5028 58.1348 18.4564C63.044 18.41 66.7068 22.8228 71.1369 24.505C75.4101 26.1275 81.8789 25.4919 85.1555 28.7281Z" stroke="white" stroke-width="0.2403" stroke-miterlimit="10"/>
    <path d="M86.5831 29.3925C89.7748 32.8308 88.296 38.716 89.5811 42.8668C90.9135 47.1696 95.3619 51.1154 94.7224 55.6379C94.0828 60.1604 88.5606 63.8076 86.0275 67.9948C83.5842 72.0338 83.3933 77.9579 79.2602 81.1769C75.1271 84.3959 68.7127 83.6163 63.9673 85.1755C59.0481 86.792 54.2298 91.1981 49.2535 91.0492C44.2771 90.9003 40.7403 86.2445 36.3183 84.3483C32.0523 82.5193 25.4726 82.9103 22.2804 79.472C19.0887 76.0336 20.5675 70.1484 19.2824 65.9976C17.95 61.6949 13.5016 57.7491 14.1411 53.2265C14.7807 48.704 20.3029 45.0568 22.836 40.8697C25.2793 36.8306 25.4702 30.9065 29.6033 27.6875C33.7364 24.4685 40.1508 25.2481 44.8962 23.6889C49.8154 22.0724 54.6337 17.6663 59.61 17.8152C64.5864 17.9641 68.1232 22.6203 72.5452 24.5161C76.8112 26.3452 83.3913 25.9545 86.5831 29.3925Z" stroke="white" stroke-width="0.2447" stroke-miterlimit="10"/>
    <path d="M88.0035 30.1291C91.1016 33.7703 89.3694 39.7256 90.5072 44.0188C91.6867 48.4693 96.0379 52.6792 95.2107 57.2754C94.3834 61.8715 88.643 65.3783 85.9103 69.5558C83.2744 73.5857 82.8462 79.6318 78.5302 82.7564C74.2142 85.8809 67.7458 84.8275 62.8755 86.2315C57.827 87.6867 52.7698 91.9967 47.7334 91.6457C42.697 91.2947 39.2975 86.3952 34.8919 84.2808C30.6415 82.2413 23.959 82.3774 20.8609 78.7361C17.7627 75.0949 19.4949 69.1396 18.3571 64.8464C17.1776 60.3959 12.8264 56.186 13.6536 51.5898C14.4809 46.9937 20.2213 43.4869 22.954 39.3094C25.5899 35.2795 26.0181 29.2334 30.3341 26.1088C34.6501 22.9843 41.1185 24.0377 45.9889 22.6337C51.0373 21.1785 56.0945 16.8685 61.1309 17.2195C66.1673 17.5705 69.5668 22.47 73.9724 24.5844C78.2224 26.6243 84.9053 26.4878 88.0035 30.1291Z" stroke="white" stroke-width="0.2492" stroke-miterlimit="10"/>
    <path d="M89.4137 30.9374C92.4085 34.7824 90.4174 40.7993 91.4 45.2318C92.4186 49.8267 96.6609 54.3036 95.6404 58.9674C94.6198 63.6312 88.6641 66.9855 85.7296 71.1454C82.8989 75.1584 82.2253 81.3203 77.728 84.3404C73.2307 87.3608 66.7178 86.0257 61.7271 87.266C56.5538 88.5515 51.2584 92.7538 46.1688 92.1935C41.0792 91.6332 37.829 86.4904 33.4481 84.1535C29.2222 81.899 22.4452 81.7713 19.4503 77.9264C16.4555 74.0814 18.4466 68.0645 17.464 63.632C16.4454 59.0371 12.2031 54.5602 13.2237 49.8964C14.2442 45.2326 20.1999 41.8783 23.1344 37.7184C25.9651 33.7054 26.6387 27.5435 31.136 24.5234C35.6333 21.503 42.1462 22.8381 47.1369 21.5978C52.3102 20.3123 57.6056 16.11 62.6952 16.6703C67.7848 17.2306 71.035 22.3734 75.4159 24.7103C79.6414 26.9648 86.4188 27.0925 89.4137 30.9374Z" stroke="white" stroke-width="0.2538" stroke-miterlimit="10"/>
    <path d="M90.8101 31.8209C93.6925 35.87 91.4364 41.9389 92.2565 46.5083C93.1065 51.2449 97.228 55.9892 96.009 60.7146C94.7899 65.44 88.622 68.6294 85.4835 72.7633C82.4562 76.7511 81.5293 83.021 76.8523 85.9278C72.1757 88.8347 65.6288 87.2101 60.5228 88.2779C55.2294 89.385 49.6972 93.4676 44.5623 92.6916C39.427 91.9156 36.3377 86.5302 31.9913 83.9667C27.7986 81.4938 20.9363 81.0923 18.0539 77.0433C15.1715 72.9942 17.4276 66.9253 16.6075 62.3559C15.7575 57.6193 11.636 52.875 12.855 48.1496C14.0741 43.4242 20.242 40.2348 23.3805 36.1009C26.4078 32.1131 27.3347 25.8432 32.0117 22.9364C36.6883 20.0295 43.2352 21.654 48.3412 20.5862C53.6346 19.4792 59.1668 15.3966 64.3017 16.1726C69.437 16.9486 72.5263 22.334 76.8727 24.8974C81.0658 27.3704 87.9281 27.7718 90.8101 31.8209Z" stroke="white" stroke-width="0.2584" stroke-miterlimit="10"/>
    <path d="M92.1902 32.7788C94.9505 37.032 92.4235 43.1442 93.0735 47.8464C93.7471 52.7207 97.7353 57.7343 96.3125 62.5146C94.8901 67.2949 88.5134 70.3077 85.1695 74.4068C81.9437 78.361 80.7558 84.7314 75.9019 87.5153C71.0476 90.2989 64.4784 88.377 59.2619 89.2639C53.8544 90.1832 48.0868 94.1346 42.914 93.1364C37.7415 92.1383 34.8243 86.5108 30.5215 83.7176C26.3707 81.0229 19.4333 80.3381 16.6733 76.0854C13.913 71.8322 16.44 65.72 15.7901 61.0178C15.1165 56.1434 11.1283 51.1299 12.551 46.3496C13.9734 41.5693 20.3502 38.5564 23.6941 34.4574C26.9198 30.5032 28.1077 24.1328 32.9616 21.3489C37.8159 18.5653 44.3852 20.4872 49.6017 19.6003C55.0091 18.681 60.7767 14.7296 65.9496 15.7277C71.1221 16.7259 74.0393 22.3534 78.3421 25.1466C82.4924 27.8413 89.4303 28.5261 92.1902 32.7788Z" stroke="white" stroke-width="0.2632" stroke-miterlimit="10"/>
    <path d="M93.5512 33.8137C96.1794 38.2706 93.3767 44.4156 93.8489 49.2471C94.3384 54.2555 98.1805 59.538 96.5496 64.3663C94.9187 69.1946 88.3378 72.0185 84.7871 76.074C81.3616 79.9862 79.9056 86.4486 74.8763 89.0993C69.8471 91.7499 63.2667 89.5231 57.9457 90.2211C52.4298 90.9447 46.4289 94.752 41.2268 93.5249C36.0251 92.2978 33.292 86.4306 29.0428 83.4041C24.9437 80.4845 17.941 79.5075 15.3128 75.0506C12.6845 70.5938 15.4873 64.4487 15.015 59.6172C14.5255 54.6089 10.6834 49.3263 12.3143 44.498C13.9452 39.6697 20.5261 36.8458 24.0769 32.7903C27.5024 28.8781 28.9584 22.4157 33.9876 19.7651C39.0168 17.1144 45.5972 19.3412 50.9182 18.6432C56.4341 17.9196 62.435 14.1123 67.6371 15.3394C72.8388 16.5665 75.5719 22.4337 79.8211 25.4602C83.9202 28.3803 90.9229 29.3572 93.5512 33.8137Z" stroke="white" stroke-width="0.268" stroke-miterlimit="10"/>
    <path d="M94.8891 34.9256C97.3757 39.585 94.292 45.7532 94.579 50.7092C94.8763 55.8469 98.5604 61.3991 96.7162 66.2683C94.8719 71.1374 88.0918 73.76 84.3329 77.7627C80.7069 81.6236 78.9751 88.1697 73.7742 90.6775C68.5733 93.1853 61.9932 90.6466 56.5738 91.1469C50.9559 91.6656 44.724 95.3168 39.5015 93.8548C34.279 92.3928 31.7424 86.2878 27.5569 83.0248C23.519 79.877 16.4619 78.5987 13.9753 73.9393C11.4887 69.2799 14.5724 63.1117 14.2855 58.1557C13.9881 53.0181 10.304 47.4658 12.1483 42.5967C13.9925 37.7276 20.7727 35.1049 24.5316 31.1023C28.1576 27.2413 29.8894 20.6953 35.0902 18.1875C40.2911 15.6797 46.8712 18.2183 52.2906 17.718C57.9086 17.1993 64.1404 13.5481 69.3629 15.0101C74.5854 16.4721 77.1221 22.5771 81.3076 25.8401C85.345 28.9875 92.4026 30.2662 94.8891 34.9256Z" stroke="white" stroke-width="0.2729" stroke-miterlimit="10"/>
    <path d="M96.2003 36.1151C98.5352 40.9762 95.1661 47.156 95.2602 52.2325C95.3579 57.495 98.871 63.3159 96.8091 68.2182C94.7475 73.1201 87.7728 75.5295 83.8054 79.4696C79.9781 83.2702 77.9638 89.8911 72.594 92.2456C67.2242 94.6005 60.6573 91.7429 55.1463 92.0378C49.4331 92.3436 42.9735 95.8252 37.7394 94.1226C32.5052 92.4201 30.1772 86.0793 26.0649 82.5774C22.0983 79.1991 14.9979 77.6106 12.663 72.7495C10.3281 67.8884 13.6972 61.7086 13.6031 56.6321C13.5055 51.3696 9.99231 45.5488 12.0543 40.6464C14.1158 35.7445 21.0905 33.3347 25.0579 29.395C28.8852 25.5944 30.8996 18.9736 36.2693 16.619C41.6391 14.2641 48.206 17.1217 53.7171 16.8268C59.4302 16.521 65.8898 13.0394 71.124 14.742C76.3581 16.4445 78.6862 22.7853 82.7985 26.2872C86.7651 29.6655 93.8654 31.254 96.2003 36.1151Z" stroke="white" stroke-width="0.278" stroke-miterlimit="10"/>
    <path d="M97.4819 37.3833C99.6551 42.4445 95.9963 48.6251 95.8906 53.8168C95.781 59.1986 99.11 65.288 96.8267 70.2152C94.5435 75.1423 87.3807 77.3259 83.204 81.1933C79.1749 84.9242 76.8716 91.6095 71.3369 93.8015C65.8027 95.9931 59.2614 92.8106 53.6651 92.8914C47.8639 92.9755 41.1802 96.2753 35.944 94.3258C30.7079 92.3767 28.5999 85.8039 24.5721 82.0606C20.6867 78.4498 13.5548 76.5423 11.3816 71.4815C9.20834 66.4203 12.8672 60.2396 12.9728 55.0479C13.0825 49.6661 9.75345 43.5767 12.0367 38.6496C14.32 33.7224 21.4828 31.5388 25.6595 27.6715C29.6885 23.9406 31.9918 17.2553 37.5265 15.0633C43.0608 12.8716 49.602 16.0542 55.1984 15.9734C60.9996 15.8893 67.6833 12.5895 72.9194 14.539C78.1555 16.4881 80.2635 23.0609 84.2914 26.8042C88.1767 30.4146 95.3087 32.3221 97.4819 37.3833Z" stroke="white" stroke-width="0.2831" stroke-miterlimit="10"/>
    <path d="M98.7307 38.7297C100.732 43.9887 96.7796 50.1589 96.4667 55.4599C96.1421 60.9553 99.2742 67.3113 96.7648 72.2552C94.2558 77.1992 86.9114 79.1443 82.5257 82.9296C78.2954 86.5812 75.6959 93.3213 70.0011 95.3397C64.3064 97.3584 57.8043 93.8444 52.1304 93.7032C46.2487 93.5571 39.3453 96.662 34.1167 94.4608C28.8882 92.2596 27.0128 85.4582 23.0798 81.4719C19.2857 77.6266 12.1345 75.3926 10.133 70.1332C8.13148 64.8743 12.0841 58.7041 12.3971 53.4031C12.7216 47.9076 9.58949 41.5517 12.0989 36.6078C14.6079 31.6638 21.9524 29.7187 26.338 25.9334C30.5684 22.2818 33.1678 15.5416 38.8626 13.5233C44.5574 11.5046 51.0594 15.0185 56.7333 15.1598C62.615 15.3059 69.5185 12.201 74.747 14.4022C79.9755 16.6034 81.8509 23.4048 85.7839 27.391C89.578 31.2368 96.7292 33.4708 98.7307 38.7297Z" stroke="white" stroke-width="0.2883" stroke-miterlimit="10"/>
    <path d="M99.9421 40.1564C101.762 45.6111 97.512 51.7585 96.9849 57.1631C96.4382 62.7658 99.3598 69.3867 96.6215 74.3387C93.8831 79.2906 86.3638 80.9848 81.77 84.678C77.3383 88.2408 74.4375 95.0246 68.5871 96.8596C62.7362 98.695 56.2874 94.8437 50.5434 94.4727C44.5889 94.0881 37.4709 96.9853 32.26 94.5267C27.0491 92.0681 25.4182 85.0426 21.5909 80.8119C17.8988 76.7304 10.7412 74.1614 8.92142 68.7067C7.10161 63.2521 11.3516 57.1047 11.8787 51.7C12.4254 46.0973 9.50374 39.4764 12.2421 34.5245C14.9804 29.5725 22.4998 27.8784 27.0935 24.1851C31.5252 20.6227 34.4264 13.839 40.2769 12.0039C46.1277 10.1685 52.5765 14.0199 58.3205 14.3909C64.2747 14.7755 71.393 11.8783 76.6039 14.3368C81.8148 16.7954 83.4457 23.8209 87.2731 28.0517C90.9647 32.1328 98.1227 34.7018 99.9421 40.1564Z" stroke="white" stroke-width="0.2936" stroke-miterlimit="10"/>
    <path d="M101.114 41.6632C102.741 47.3099 98.1917 53.4225 97.4429 58.9248C96.6669 64.6288 99.3648 71.5114 96.3939 76.4625C93.4227 81.4137 85.736 82.8445 80.9349 86.4349C76.3031 89.8984 73.0949 96.7154 67.0936 98.3567C61.0922 99.9985 54.7103 95.8049 48.9047 95.1962C42.8865 94.565 35.5588 97.2413 30.3759 94.5206C25.1935 91.7995 23.8191 84.5551 20.1086 80.0782C16.529 75.7598 9.37824 72.8481 7.75054 67.201C6.12283 61.5542 10.6726 55.4416 11.4214 49.9394C12.1974 44.2354 9.49951 37.3528 12.4704 32.4016C15.4416 27.4504 23.1283 26.0196 27.9294 22.4292C32.5612 18.9657 35.7693 12.1491 41.7707 10.5074C47.772 8.86569 54.154 13.0592 59.9596 13.668C65.9778 14.2991 73.3055 11.6228 78.4883 14.3435C83.6708 17.0647 85.0452 24.3091 88.7557 28.786C92.3348 33.1044 99.486 36.016 101.114 41.6632Z" stroke="white" stroke-width="0.299" stroke-miterlimit="10"/>
    <path d="M102.241 43.2494C103.667 49.085 98.8143 55.1496 97.8374 60.7427C96.8248 66.5408 99.2862 73.6823 96.0792 78.6235C92.8722 83.5646 85.0266 84.7193 80.019 88.1964C75.1883 91.5511 71.6672 98.3889 65.521 99.8265C59.3747 101.264 53.074 96.7236 47.2152 95.8695C41.1418 94.9842 33.6108 97.426 28.4667 94.4383C23.3231 91.4506 22.2176 83.9917 18.6352 79.2687C15.1793 74.7125 8.04855 71.4507 6.62296 65.6151C5.19737 59.7794 10.0501 53.7148 11.027 48.1217C12.0396 42.3237 9.57821 35.1821 12.7852 30.241C15.9926 25.2998 23.8381 24.1452 28.8457 20.668C33.6764 17.3134 37.1976 10.4755 43.3438 9.03794C49.49 7.60034 55.7907 12.1409 61.6496 12.9949C67.723 13.8802 75.254 11.4385 80.398 14.4261C85.5417 17.4138 86.6471 24.8728 90.2295 29.5958C93.685 34.1523 100.816 37.4137 102.241 43.2494Z" stroke="white" stroke-width="0.3045" stroke-miterlimit="10"/>
    <path d="M103.32 44.9152C104.533 50.9362 99.3755 56.9395 98.164 62.6163C96.9081 68.5012 99.1189 75.8977 95.6734 80.8188C92.2279 85.74 84.2323 86.6065 79.0201 89.9599C73.9921 93.1949 70.1532 100.042 63.8681 101.265C57.583 102.489 51.3784 97.597 45.4759 96.49C39.3569 95.3421 31.6286 97.5369 26.5349 94.2779C21.4413 91.0189 20.6168 83.3526 17.1741 78.3827C13.8531 73.5884 6.75631 69.97 5.54323 63.9494C4.33015 57.9285 9.48783 51.9251 10.6993 46.2484C11.9552 40.3635 9.74437 32.967 13.1899 28.0458C16.6354 23.1247 24.6311 22.2582 29.8432 18.9047C34.8712 15.6697 38.7101 8.82272 44.9952 7.59923C51.2803 6.37575 57.485 11.2677 63.3874 12.3747C69.5065 13.5225 77.2348 11.3277 82.3284 14.5867C87.422 17.8457 88.2465 25.512 91.6892 30.482C95.0107 35.2763 102.107 38.8943 103.32 44.9152Z" stroke="white" stroke-width="0.3101" stroke-miterlimit="10"/>
    <path d="M104.348 46.6609C105.338 52.8623 99.8741 58.7912 98.4216 64.544C96.916 70.5078 98.8627 78.1548 95.1762 83.0463C91.4898 87.9379 83.3532 88.5034 77.939 91.722C72.7161 94.8269 68.5542 101.671 62.1374 102.67C55.7203 103.669 49.6273 98.4213 43.6895 97.0541C37.5345 95.6366 29.6165 97.5704 24.5845 94.0361C19.5521 90.5021 19.021 82.6345 15.7292 77.4176C12.5538 72.3852 5.50628 68.4042 4.51573 62.2027C3.52517 56.0013 8.98942 50.0724 10.4418 44.3196C11.9475 38.3559 10.0008 30.7088 13.6872 25.8173C17.3737 20.9257 25.5102 20.3602 30.9244 17.1416C36.1473 14.0367 40.3093 7.1929 46.726 6.19394C53.1432 5.19498 59.2362 10.4423 65.1739 11.8095C71.329 13.2271 79.247 11.2932 84.279 14.8275C89.3114 18.3615 89.8425 26.2291 93.1343 31.446C96.3097 36.4784 103.357 40.4594 104.348 46.6609Z" stroke="white" stroke-width="0.3158" stroke-miterlimit="10"/>
    <path d="M105.32 48.4864C106.078 54.8635 100.306 60.704 98.606 66.5252C96.8438 72.5594 98.5135 80.4522 94.5841 85.3037C90.6547 90.1552 82.3877 90.4077 76.7738 93.4806C71.3584 96.4447 66.8699 103.272 60.3279 104.037C53.7858 104.801 47.8197 99.1954 41.8572 97.5605C35.6765 95.866 27.5764 97.5253 22.6172 93.7124C17.6581 89.8994 17.4316 81.8381 14.303 76.3755C11.2849 71.1058 4.30144 66.7557 3.54382 60.3786C2.78579 54.0014 8.55781 48.161 10.258 42.3397C12.0201 36.3056 10.3504 28.4128 14.2798 23.5613C18.2092 18.7098 26.4762 18.4572 32.0901 15.3843C37.5055 12.4203 41.994 5.59247 48.5361 4.82805C55.0781 4.06362 61.0443 9.66954 67.0068 11.3045C73.1874 12.999 81.2875 11.3397 86.2467 15.1526C91.2059 18.9655 91.4324 27.0268 94.5609 32.4895C97.579 37.7592 104.562 42.1092 105.32 48.4864Z" stroke="white" stroke-width="0.3216" stroke-miterlimit="10"/>
    <path d="M106.233 50.3897C106.748 56.937 100.668 62.675 98.7141 68.5558C96.6893 74.652 98.0681 82.7846 93.8942 87.5852C89.7202 92.3859 81.3332 92.3139 75.5227 95.2295C69.9176 98.0423 65.0989 104.84 58.4396 105.36C51.7803 105.879 45.9567 99.9117 39.9801 98.0026C33.7843 96.0235 25.5109 97.3959 20.637 93.3012C15.7631 89.2065 15.8531 80.9591 12.8995 75.2516C10.0503 69.7457 3.14643 65.0207 2.63094 58.4734C2.11585 51.9262 8.19604 46.1882 10.1495 40.3073C12.1743 34.2111 10.7955 26.0786 14.9694 21.2779C19.1433 16.4772 27.5304 16.5493 33.3408 13.6336C38.946 10.8209 43.7646 4.02308 50.424 3.50359C57.0833 2.9841 62.9069 8.95143 68.8834 10.8605C75.0793 12.8396 83.3527 11.4672 88.2266 15.5619C93.1005 19.6566 93.0105 27.904 95.9641 33.6116C98.8137 39.1178 105.718 43.8429 106.233 50.3897Z" stroke="white" stroke-width="0.3275" stroke-miterlimit="10"/>
    <path d="M107.082 52.3723C107.345 59.0837 100.956 64.7044 98.7438 70.6361C96.4505 76.7851 97.5255 85.1514 93.1054 89.8904C88.6858 94.6295 80.1899 94.2204 74.1865 96.968C68.3953 99.6183 63.2428 106.373 56.4742 106.637C49.7057 106.902 44.0413 100.571 38.0608 98.3812C31.8613 96.1111 23.423 97.1825 18.6468 92.8033C13.8705 88.424 14.2883 79.9993 11.5216 74.0484C8.85252 68.3076 2.04433 63.2032 1.78178 56.4918C1.51924 49.7805 7.908 44.1598 10.1204 38.2281C12.4137 32.079 11.3387 23.7128 15.7588 18.9737C20.1788 14.2347 28.6744 14.6437 34.6777 11.8962C40.4689 9.24593 45.6214 2.49137 52.39 2.22682C59.1585 1.96187 64.8229 8.2934 70.8034 10.483C77.0029 12.7531 85.4412 11.6817 90.2174 16.0609C94.9937 20.4402 94.5759 28.8649 97.3426 34.8158C100.011 40.5566 106.82 45.661 107.082 52.3723Z" stroke="white" stroke-width="0.3335" stroke-miterlimit="10"/>
    <path d="M107.864 54.4322C107.864 61.3012 101.168 66.7898 98.6908 72.7632C96.123 78.9554 96.8806 87.5478 92.2144 92.2144C87.5478 96.8806 78.9554 96.123 72.7632 98.6908C66.7898 101.168 61.3012 107.864 54.4322 107.864C47.5631 107.864 42.0745 101.168 36.1012 98.6908C29.9089 96.123 21.3165 96.8806 16.6499 92.2144C11.9837 87.5478 12.7413 78.9554 10.1735 72.7632C7.69653 66.7898 1 61.3012 1 54.4322C1 47.5631 7.69653 42.0745 10.1735 36.1012C12.7413 29.9089 11.9837 21.3165 16.6499 16.6499C21.3165 11.9837 29.9089 12.7413 36.1012 10.1735C42.0745 7.69653 47.5631 1 54.4322 1C61.3012 1 66.7898 7.69653 72.7632 10.1735C78.9554 12.7413 87.5478 11.9837 92.2144 16.6499C96.8806 21.3165 96.123 29.9089 98.6908 36.1012C101.168 42.0745 107.864 47.5631 107.864 54.4322Z" stroke="white" stroke-width="0.3397" stroke-miterlimit="10"/>
</svg>