<svg width="124" height="120" viewBox="0 0 124 120" fill="none" xmlns="http://www.w3.org/2000/svg">
    <path d="M47.3225 1.40492C12.5225 10.4716 -7.74421 44.4716 2.78913 76.7383C6.65579 88.6049 10.7891 95.1383 19.1891 102.872C32.7891 115.272 51.5891 121.272 68.5225 118.338C86.2558 115.272 101.322 105.138 101.322 96.3383C101.322 93.0049 100.256 90.6049 97.7225 88.0716C92.1225 82.4716 89.4558 82.4716 77.9891 88.4716C69.5891 93.0049 66.3891 93.9383 60.3891 93.9383C50.2558 93.9383 43.7225 91.6716 37.3225 86.2049C21.0558 72.3383 20.7891 48.2049 36.7891 34.0716C48.2558 24.0716 64.6558 23.1383 78.9225 31.9383C85.4558 36.0716 87.5891 36.7383 91.3225 36.0716C97.0558 35.0049 101.322 29.6716 101.322 23.8049C101.322 17.4049 95.3225 11.2716 83.8558 5.93826C75.5891 2.20492 70.7891 0.9 60.3891 0.5C53.7225 0.233333 48.7891 1.00492 47.3225 1.40492Z" fill="url(#paint0_radial_325_642)"/>
    <rect x="93.999" y="69.9004" width="14" height="14" rx="7" transform="rotate(-45 93.999 69.9004)" fill="url(#paint1_linear_325_642)"/>
    <rect x="74.2002" y="69.9004" width="14" height="14" rx="7" transform="rotate(-45 74.2002 69.9004)" fill="url(#paint2_linear_325_642)"/>
    <rect x="93.999" y="50.0996" width="14" height="14" rx="7" transform="rotate(-45 93.999 50.0996)" fill="url(#paint3_linear_325_642)"/>
    <rect x="74.2002" y="50.0996" width="14" height="14" rx="7" transform="rotate(-45 74.2002 50.0996)" fill="url(#paint4_linear_325_642)"/>
    <defs>
        <radialGradient id="paint0_radial_325_642" cx="0" cy="0" r="1" gradientUnits="userSpaceOnUse" gradientTransform="translate(92 110) rotate(-126.046) scale(111.311 95.5204)">
            <stop stop-color="#400402"/>
            <stop offset="1" stop-color="#FD291F"/>
        </radialGradient>
        <linearGradient id="paint1_linear_325_642" x1="101" y1="83.4065" x2="100.293" y2="70.6786" gradientUnits="userSpaceOnUse">
            <stop stop-color="#D52118"/>
            <stop offset="1" stop-color="#D52118" stop-opacity="0"/>
        </linearGradient>
        <linearGradient id="paint2_linear_325_642" x1="72.9275" y1="75.1326" x2="86.3626" y2="77.2539" gradientUnits="userSpaceOnUse">
            <stop stop-color="#D52118"/>
            <stop offset="1" stop-color="#D52118" stop-opacity="0"/>
        </linearGradient>
        <linearGradient id="paint3_linear_325_642" x1="109.98" y1="58.8687" x2="95.1308" y2="56.7474" gradientUnits="userSpaceOnUse">
            <stop stop-color="#D52118"/>
            <stop offset="1" stop-color="#D52118" stop-opacity="0"/>
        </linearGradient>
        <linearGradient id="paint4_linear_325_642" x1="81.2002" y1="50.0996" x2="81.2002" y2="64.0996" gradientUnits="userSpaceOnUse">
            <stop stop-color="#D52118"/>
            <stop offset="1" stop-color="#FFFCFC" stop-opacity="0"/>
        </linearGradient>
    </defs>
</svg>
